<svg width="48" height="27" viewBox="0 0 48 27" fill="none" xmlns="http://www.w3.org/2000/svg">
<g clip-path="url(#clip0_214_2789)">
<path d="M13.3333 0L16 2.7L13.3333 5.4L10.6666 2.7L13.3333 0Z" fill="#A8C7FA"/>
<path d="M18.6667 5.40002L21.3333 8.10002L18.6667 10.8L16 8.10002L18.6667 5.40002Z" fill="#A8C7FA"/>
<path d="M40 5.40002L42.6667 8.10002L40 10.8L37.3334 8.10002L40 5.40002Z" fill="#A8C7FA"/>
<path d="M45.3333 10.8L48 13.5L45.3333 16.2L42.6666 13.5L45.3333 10.8Z" fill="#A8C7FA"/>
<path d="M40 16.2L42.6667 18.9L40 21.6L37.3334 18.9L40 16.2Z" fill="#A8C7FA"/>
<path d="M34.6667 21.6L37.3333 24.3L34.6667 27L32 24.3L34.6667 21.6Z" fill="#A8C7FA"/>
<path d="M29.3333 16.2L32 18.9L29.3333 21.6L26.6666 18.9L29.3333 16.2Z" fill="#A8C7FA"/>
<path d="M8.00004 5.40002L10.6667 8.10002L8.00004 10.8L5.33337 8.10002L8.00004 5.40002Z" fill="#A8C7FA"/>
<path d="M34.6667 0L37.3333 2.7L13.3333 27L0 13.5L2.66667 10.8L13.3333 21.6L34.6667 0Z" fill="#1B6EF3"/>
</g>
<defs>
<clipPath id="clip0_214_2789">
<rect width="48" height="27" fill="white"/>
</clipPath>
</defs>
</svg>
