<svg viewBox="0 0 48 27" fill="none" xmlns="http://www.w3.org/2000/svg">
<g clip-path="url(#clip0_214_2790)">
<path d="M13.3333 0L21.3333 8.1L18.6666 10.8L10.6666 2.7L13.3333 0Z" fill="#F09409"/>
<path d="M37.3333 2.69995L48 13.5L37.3333 24.3L34.6666 21.6L42.6666 13.5L34.6666 5.39995L37.3333 2.69995Z" fill="#C6C6C6"/>
<path d="M29.3333 16.2L26.6666 18.9L34.6666 27L37.3333 24.3L29.3333 16.2Z" fill="#F09409"/>
<path d="M10.6667 2.69995L13.3333 5.39995L5.33333 13.5L13.3333 21.6L10.6667 24.3L0 13.5L10.6667 2.69995Z" fill="#C6C6C6"/>
<path d="M34.6666 0L37.3333 2.7L13.3333 27L10.6666 24.3L34.6666 0Z" fill="#F09409"/>
</g>
<defs>
<clipPath id="clip0_214_2790">
<rect width="48" height="27" fill="white"/>
</clipPath>
</defs>
</svg>
