<svg viewBox="0 0 36 36" fill="none" xmlns="http://www.w3.org/2000/svg">
<path d="M18 36C27.9411 36 36 27.9411 36 18C36 8.05888 27.9411 0 18 0C8.05888 0 0 8.05888 0 18C0 27.9411 8.05888 36 18 36Z" fill="url(#paint0_linear_214_2772)"/>
<path d="M35.992 18C35.992 8.06331 27.9367 0.00803571 18 0.00803571C8.06331 0.00803571 0.00803571 8.06331 0.00803571 18C0.00803571 27.9367 8.06331 35.992 18 35.992V36C8.05888 36 0 27.9411 0 18C0 8.05888 8.05888 0 18 0C27.9411 0 36 8.05888 36 18C36 27.9411 27.9411 36 18 36V35.992C27.9367 35.992 35.992 27.9367 35.992 18Z" fill="white"/>
<path d="M30.2946 5.625L16.4731 16.4732L19.6874 19.6875L30.2946 5.625Z" fill="#FF0000"/>
<path d="M19.6874 19.6875L16.4731 16.4732L30.2946 5.625L19.6874 19.6875ZM16.4852 16.4739L19.6866 19.6753L30.251 5.66942L16.4852 16.4739Z" fill="white"/>
<path d="M5.625 30.2947L16.4732 16.4733L19.6875 19.6876L5.625 30.2947Z" fill="white"/>
<path d="M19.6875 19.6876L5.625 30.2947L16.4732 16.4733L19.6875 19.6876ZM5.66942 30.2511L19.6753 19.6867L16.4739 16.4854L5.66942 30.2511Z" fill="white"/>
<path d="M18.0001 1.76782V4.41961V1.76782ZM18.0001 31.5V34.1518V31.5ZM20.8126 2.00889L20.3545 4.6205L20.8126 2.00889ZM15.6456 31.283L15.1876 33.9107L15.6456 31.283ZM23.5447 2.74818L22.6367 5.23925L23.5447 2.74818ZM13.3715 30.6803L12.4635 33.1714L13.3715 30.6803ZM15.1876 2.00889L15.6456 4.6205L15.1876 2.00889ZM20.3545 31.283L20.8126 33.9107L20.3545 31.283ZM12.4554 2.74818L13.3635 5.23925L12.4554 2.74818ZM22.6206 30.6803L23.5286 33.1714L22.6206 30.6803ZM9.90007 3.93747L11.234 6.23568L9.90007 3.93747ZM24.7742 29.6839L26.1001 31.9821L24.7742 29.6839ZM7.59382 5.54461L9.29739 7.57764L7.59382 5.54461ZM26.7027 28.3259L28.4063 30.3589L26.7027 28.3259ZM5.58489 7.53747L7.61793 9.24104L5.58489 7.53747ZM28.3661 26.6625L30.3992 28.366L28.3661 26.6625ZM3.96168 9.86782L6.25989 11.1937L3.96168 9.86782ZM29.7242 24.7339L32.0224 26.0598L29.7242 24.7339ZM2.77239 12.4232L5.26346 13.3312L2.77239 12.4232ZM30.7045 22.5723L33.1956 23.4803L30.7045 22.5723ZM2.04114 15.1232L4.66078 15.5893L2.04114 15.1232ZM31.3394 20.3143L33.951 20.7723L31.3394 20.3143ZM1.80811 17.9598H4.45989H1.80811ZM31.5403 17.9598H34.192H31.5403ZM2.04918 20.7723L4.66078 20.3143L2.04918 20.7723ZM31.3394 15.6053L33.951 15.1473L31.3394 15.6053ZM2.7965 23.5044L5.28757 22.5964L2.7965 23.5044ZM30.7206 13.3393L33.2117 12.4312L30.7206 13.3393ZM3.97775 26.0598L6.27596 24.7339L3.97775 26.0598ZM29.7402 11.1937L32.0385 9.86782L29.7402 11.1937ZM5.59293 28.366L7.62596 26.6625L5.59293 28.366ZM28.3581 9.25711L30.3911 7.55354L28.3581 9.25711ZM7.56971 30.375L9.27328 28.3419L7.56971 30.375ZM26.6786 7.59372L28.3822 5.56068L26.6786 7.59372ZM9.90007 31.9821L11.234 29.6839L9.90007 31.9821ZM24.7742 6.23568L26.1001 3.93747L24.7742 6.23568ZM16.5858 1.83211L16.7144 3.27854L16.5858 1.83211ZM19.2858 32.6571L19.4144 34.1035L19.2858 32.6571ZM13.8054 2.33032L14.1831 3.72854L13.8054 2.33032ZM21.817 32.2071L22.1947 33.6053L21.817 32.2071ZM11.1536 3.29461L11.7644 4.60443L11.1536 3.29461ZM24.2197 31.3312L24.8385 32.641L24.2197 31.3312ZM8.71078 4.69282L9.53846 5.88211L8.71078 4.69282ZM26.4617 30.0375L27.2894 31.2268L26.4617 30.0375ZM6.54918 6.50889L7.56971 7.52943L6.54918 6.50889ZM28.4304 28.3901L29.451 29.4107L28.4304 28.3901ZM4.74114 8.67854L5.93043 9.50622L4.74114 8.67854ZM30.0858 26.4375L31.259 27.241L30.0858 26.4375ZM3.32686 11.1134L4.63668 11.7241L3.32686 11.1134ZM31.3635 24.1794L32.6733 24.7982L31.3635 24.1794ZM2.36257 13.7651L3.76078 14.1428L2.36257 13.7651ZM32.2394 21.7768L33.6376 22.1544L32.2394 21.7768ZM1.87239 16.5535L3.31882 16.6821L1.87239 16.5535ZM32.6974 19.2535L34.1438 19.3821L32.6974 19.2535ZM1.88846 19.3821L3.33489 19.2535L1.88846 19.3821ZM32.7135 16.6821L34.1599 16.5535L32.7135 16.6821ZM2.36257 22.1544L3.76078 21.7768L2.36257 22.1544ZM32.2394 14.1428L33.6376 13.7651L32.2394 14.1428ZM3.32686 24.8062L4.63668 24.1955L3.32686 24.8062ZM31.3635 11.7401L32.6733 11.1294L31.3635 11.7401ZM4.74114 27.241L5.93043 26.4134L4.74114 27.241ZM30.0858 9.48211L31.259 8.67854L30.0858 9.48211ZM8.71078 31.2268L9.53846 30.0375L8.71078 31.2268ZM26.4536 5.88211L27.2894 4.69282L26.4536 5.88211ZM11.1536 32.625L11.7724 31.3151L11.1536 32.625ZM24.2277 4.58032L24.8465 3.2705L24.2277 4.58032ZM13.8054 33.5893L14.1831 32.191L13.8054 33.5893ZM21.817 3.71247L22.1947 2.31425L21.817 3.71247ZM16.5858 34.0714L16.7144 32.625L16.5858 34.0714ZM19.2858 3.24639L19.4144 1.79997L19.2858 3.24639Z" fill="#292929"/>
<path d="M18.1206 31.5V34.1518H17.8795V31.5H18.1206ZM19.5344 34.0929L19.2943 34.1142L19.1657 32.6678L19.4058 32.6464L19.5344 34.0929ZM16.8344 32.6356L16.7058 34.0821L16.4657 34.0607L16.5943 32.6143L16.8344 32.6356ZM15.7644 31.3037L15.3063 33.9314L15.0688 33.89L15.5269 31.2623L15.7644 31.3037ZM20.9313 33.89L20.6938 33.9314L20.2358 31.3037L20.4733 31.2623L20.9313 33.89ZM22.3111 33.5739L22.0783 33.6368L21.7007 32.2385L21.9334 32.1757L22.3111 33.5739ZM14.2995 32.2225L13.9218 33.6207L13.6891 33.5578L14.0667 32.1596L14.2995 32.2225ZM13.4847 30.7216L12.5767 33.2127L12.3502 33.1301L13.2583 30.639L13.4847 30.7216ZM23.6419 33.1301L23.4154 33.2127L22.5074 30.7216L22.7339 30.639L23.6419 33.1301ZM24.9474 32.5896L24.7295 32.6925L24.1107 31.3827L24.3287 31.2797L24.9474 32.5896ZM11.8814 31.3666L11.2626 32.6765L11.0447 32.5735L11.6634 31.2637L11.8814 31.3666ZM11.3382 29.7444L10.0043 32.0426L9.79583 31.9216L11.1298 29.6234L11.3382 29.7444ZM26.2045 31.9219L25.9957 32.0423L24.6698 29.7441L24.8786 29.6237L26.2045 31.9219ZM9.63739 30.1063L8.80972 31.2956L8.61185 31.1579L9.43953 29.9686L9.63739 30.1063ZM27.3883 31.1579L27.1904 31.2956L26.3627 30.1063L26.5606 29.9686L27.3883 31.1579ZM9.36567 28.4193L7.6621 30.4524L7.47733 30.2976L9.1809 28.2645L9.36567 28.4193ZM28.4987 30.2815L28.3139 30.4363L26.6104 28.4033L26.7951 28.2484L28.4987 30.2815ZM29.5362 29.3255L29.3657 29.4959L28.3452 28.4754L28.5157 28.3049L29.5362 29.3255ZM7.70338 26.7549L5.67034 28.4584L5.51551 28.2737L7.54855 26.5701L7.70338 26.7549ZM30.4766 28.2737L30.3218 28.4584L28.2887 26.7549L28.4436 26.5701L30.4766 28.2737ZM31.3271 27.1416L31.1909 27.3405L30.0177 26.5369L30.1539 26.338L31.3271 27.1416ZM5.99928 26.5123L4.80999 27.34L4.67229 27.1421L5.86157 26.3144L5.99928 26.5123ZM6.3362 24.8383L4.03798 26.1642L3.91751 25.9554L6.21573 24.6295L6.3362 24.8383ZM32.0826 25.9554L31.9622 26.1642L29.6639 24.8383L29.7844 24.6295L32.0826 25.9554ZM4.68761 24.3047L3.37779 24.9155L3.27592 24.697L4.58574 24.0863L4.68761 24.3047ZM32.7248 24.6892L32.6218 24.9072L31.312 24.2884L31.415 24.0704L32.7248 24.6892ZM5.32885 22.7096L2.83778 23.6177L2.75522 23.3912L5.24629 22.4831L5.32885 22.7096ZM33.2369 23.3671L33.1543 23.5936L30.6633 22.6855L30.7458 22.459L33.2369 23.3671ZM3.79221 21.8931L2.394 22.2708L2.33114 22.0381L3.72936 21.6604L3.79221 21.8931ZM33.669 22.0381L33.6061 22.2708L32.2079 21.8931L32.2708 21.6604L33.669 22.0381ZM4.6816 20.433L2.07 20.891L2.02836 20.6536L4.63997 20.1955L4.6816 20.433ZM33.9718 20.6536L33.9301 20.891L31.3185 20.433L31.3602 20.1955L33.9718 20.6536ZM3.34556 19.3736L1.89914 19.5022L1.87779 19.262L3.32422 19.1335L3.34556 19.3736ZM34.1545 19.262L34.1331 19.5022L32.6867 19.3736L32.7081 19.1335L34.1545 19.262ZM4.45989 17.8393V18.0803H1.80811V17.8393H4.45989ZM34.192 17.8393V18.0803H31.5403V17.8393H34.192ZM3.32949 16.562L3.30815 16.8022L1.86172 16.6736L1.88306 16.4335L3.32949 16.562ZM34.1706 16.6736L32.7241 16.8022L32.7028 16.562L34.1492 16.4335L34.1706 16.6736ZM33.9718 15.266L31.3602 15.724L31.3185 15.4866L33.9301 15.0286L33.9718 15.266ZM4.6819 15.4706L4.63967 15.7079L2.02002 15.2419L2.06226 15.0045L4.6819 15.4706ZM3.79221 14.0265L3.72936 14.2592L2.33114 13.8815L2.394 13.6488L3.79221 14.0265ZM33.669 13.8815L32.2708 14.2592L32.2079 14.0265L33.6061 13.6488L33.669 13.8815ZM33.253 12.5445L30.7619 13.4525L30.6793 13.226L33.1704 12.318L33.253 12.5445ZM5.30474 13.218L5.22219 13.4445L2.73111 12.5364L2.81367 12.3099L5.30474 13.218ZM32.7242 11.2387L31.4144 11.8494L31.3125 11.6309L32.6223 11.0202L32.7242 11.2387ZM4.68761 11.6148L4.58574 11.8333L3.27592 11.2226L3.37779 11.0041L4.68761 11.6148ZM6.32013 11.0893L6.19966 11.2981L3.90144 9.97223L4.02191 9.76341L6.32013 11.0893ZM32.0987 9.97223L29.8005 11.2981L29.68 11.0893L31.9782 9.76341L32.0987 9.97223ZM5.99928 9.40728L5.86157 9.60515L4.67229 8.77747L4.80999 8.57961L5.99928 9.40728ZM31.3271 8.77798L30.1539 9.58155L30.0177 9.38267L31.1909 8.57909L31.3271 8.77798ZM30.4686 7.64592L28.4355 9.3495L28.2807 9.16472L30.3137 7.46115L30.4686 7.64592ZM7.69534 9.14865L7.54051 9.33342L5.50748 7.62985L5.66231 7.44508L7.69534 9.14865ZM28.4746 5.63809L26.771 7.67113L26.5863 7.5163L28.2898 5.48327L28.4746 5.63809ZM9.38978 7.50023L9.205 7.65506L7.50143 5.62202L7.68621 5.46719L9.38978 7.50023ZM7.65494 7.4442L7.48448 7.61466L6.46395 6.59412L6.63441 6.42366L7.65494 7.4442ZM11.3382 6.17517L11.1298 6.29619L9.79583 3.99798L10.0043 3.87695L11.3382 6.17517ZM26.2045 3.9977L24.8786 6.29592L24.6698 6.17544L25.9957 3.87723L26.2045 3.9977ZM27.388 4.76212L26.5523 5.95141L26.355 5.81281L27.1907 4.62352L27.388 4.76212ZM9.63739 5.81326L9.43953 5.95096L8.61185 4.76168L8.80972 4.62397L9.63739 5.81326ZM13.4767 5.19797L13.2502 5.28053L12.3422 2.78946L12.5687 2.7069L13.4767 5.19797ZM23.658 2.78946L22.7499 5.28053L22.5234 5.19797L23.4315 2.7069L23.658 2.78946ZM11.8736 4.55349L11.6551 4.65537L11.0444 3.34555L11.2629 3.24367L11.8736 4.55349ZM15.7643 4.59968L15.5269 4.64132L15.0688 2.02971L15.3063 1.98807L15.7643 4.59968ZM20.9313 2.02971L20.4733 4.64132L20.2358 4.59968L20.6938 1.98807L20.9313 2.02971ZM24.9555 3.32199L24.3367 4.63181L24.1188 4.52884L24.7375 3.21901L24.9555 3.32199ZM18.1206 1.76782V4.41961H17.8795V1.76782H18.1206ZM14.2995 3.69711L14.0667 3.75997L13.6891 2.36175L13.9218 2.29889L14.2995 3.69711ZM22.3111 2.34568L21.9334 3.74389L21.7007 3.68104L22.0783 2.28282L22.3111 2.34568ZM16.8344 3.26786L16.5943 3.28921L16.4657 1.84278L16.7058 1.82144L16.8344 3.26786ZM19.5344 1.81064L19.4058 3.25707L19.1657 3.23572L19.2943 1.78929L19.5344 1.81064Z" fill="white"/>
<defs>
<linearGradient id="paint0_linear_214_2772" x1="18" y1="0" x2="18" y2="36" gradientUnits="userSpaceOnUse">
<stop stop-color="#63D3FA"/>
<stop offset="1" stop-color="#3263E7"/>
</linearGradient>
</defs>
</svg>
