<svg width="36" height="36" viewBox="0 0 36 36" fill="none" xmlns="http://www.w3.org/2000/svg">
<path d="M32.775 11.7389C32.0356 9.96583 30.5368 8.05168 29.3603 7.44702C30.3179 9.31742 30.8718 11.1935 31.0836 12.5932C31.0836 12.5932 31.0836 12.6031 31.0871 12.6215C29.1626 7.84214 25.8986 5.91458 23.2332 1.71871C23.0979 1.50704 22.9634 1.29537 22.8316 1.0689C22.7572 0.941199 22.6969 0.825482 22.6446 0.716125C22.5341 0.503964 22.4487 0.279747 22.3903 0.0479747C22.3908 0.0369678 22.387 0.0261782 22.38 0.0177058C22.3729 0.00923339 22.363 0.00368164 22.3521 0.00211267C22.3416 -0.000704224 22.3306 -0.000704224 22.3201 0.00211267C22.3173 0.00339198 22.3147 0.00505744 22.3124 0.00704882C22.3081 0.00704882 22.3039 0.0119972 22.2996 0.0133972L22.3066 0.00422473C18.0306 2.49904 16.5798 7.114 16.4467 9.42326C14.7379 9.53965 13.1041 10.1664 11.7582 11.2217C11.6176 11.1032 11.4706 10.9925 11.3177 10.8901C10.9298 9.53774 10.9134 8.10652 11.2702 6.74572C9.52135 7.53945 8.16137 8.7918 7.17254 9.90021H7.16475C6.48971 9.04861 6.53717 6.23984 6.57542 5.65353C6.56762 5.61684 6.07251 5.90964 6.00876 5.95409C5.4131 6.37736 4.8563 6.85241 4.34489 7.37366C3.76293 7.96135 3.23125 8.59644 2.7554 9.27227C1.6606 10.8177 0.884193 12.5639 0.471034 14.4101C0.46325 14.4468 0.456158 14.4848 0.448375 14.5222C0.416499 14.6712 0.301041 15.4182 0.280495 15.5806V15.618C0.12998 16.39 0.0362352 17.172 0 17.9575V18.0443C0 27.4083 7.62162 35 17.0225 35C25.4425 35 32.433 28.9111 33.8022 20.9131C33.8305 20.6965 33.8538 20.4778 33.8793 20.259C34.218 17.3507 33.8418 14.2944 32.775 11.7389ZM13.1543 25.0116C13.2338 25.049 13.3088 25.0907 13.3903 25.1272L13.4016 25.1343C13.3201 25.0949 13.2365 25.054 13.1543 25.0116ZM31.0886 12.6292V12.613V12.6314V12.6292Z" fill="url(#paint0_linear_214_2774)"/>
<path d="M32.774 11.3615C32.0346 9.55966 30.5357 7.61447 29.3591 7C30.3168 8.90075 30.8708 10.8072 31.0825 12.2297V12.2649C32.6891 16.673 31.8136 21.1556 30.5527 23.8945C28.6019 28.132 23.8793 32.4754 16.4862 32.264C8.5052 32.0345 1.46913 26.0326 0.155134 18.1779C-0.0842887 16.9383 0.155134 16.3095 0.27555 15.3035C0.128928 16.0785 0.0729587 16.3029 0 17.681V17.7692C0 27.2852 7.62189 35 17.0232 35C25.4433 35 32.4341 28.8123 33.8033 20.6845C33.8316 20.4644 33.855 20.2422 33.8806 20.0199C34.217 17.0645 33.8408 13.9584 32.774 11.3615Z" fill="url(#paint1_radial_214_2774)"/>
<path d="M32.774 11.3615C32.0346 9.55966 30.5357 7.61447 29.3591 7C30.3168 8.90075 30.8708 10.8072 31.0825 12.2297V12.2649C32.6891 16.673 31.8136 21.1556 30.5527 23.8945C28.6019 28.132 23.8793 32.4754 16.4862 32.264C8.5052 32.0345 1.46913 26.0326 0.155134 18.1779C-0.0842887 16.9383 0.155134 16.3095 0.27555 15.3035C0.128928 16.0785 0.0729587 16.3029 0 17.681V17.7692C0 27.2852 7.62189 35 17.0232 35C25.4433 35 32.4341 28.8123 33.8033 20.6845C33.8316 20.4644 33.855 20.2422 33.8806 20.0199C34.217 17.0645 33.8408 13.9584 32.774 11.3615Z" fill="url(#paint2_radial_214_2774)"/>
<path d="M24.8959 13.9206C24.9326 13.947 24.9652 13.9734 25 14C24.5813 13.2337 24.0596 12.5323 23.4505 11.9164C18.2648 6.57177 22.0913 0.326979 22.7362 0.00930163L22.7431 0C18.5523 2.52996 17.1304 7.20999 17 9.55178C17.1943 9.53819 17.388 9.52102 17.5859 9.52102C20.7132 9.52102 23.4373 11.2939 24.8959 13.9206Z" fill="url(#paint3_radial_214_2774)"/>
<path d="M17.6134 14.553C17.5861 14.9888 16.1017 16.4853 15.5824 16.4853C10.7794 16.4853 10 19.4884 10 19.4884C10.2108 22.018 11.9158 24.1007 13.9785 25.2026C14.0728 25.2528 14.1676 25.2978 14.2597 25.3429C14.4248 25.4155 14.5907 25.4882 14.7559 25.5528C15.4633 25.8108 16.204 25.9577 16.9535 25.9887C25.3717 26.397 27.0037 15.5845 20.9279 12.4448C22.4832 12.1651 24.0983 12.8124 25 13.4669C23.5241 10.8002 20.7656 9 17.5995 9C17.3991 9 17.2031 9.01743 17.0062 9.03124C15.3121 9.15257 13.6925 9.79859 12.3586 10.8852C12.6166 11.1111 12.9075 11.4118 13.5196 12.0351C14.6681 13.2062 17.6072 14.4113 17.6134 14.553Z" fill="url(#paint4_radial_214_2774)"/>
<path d="M17.6134 14.553C17.5861 14.9888 16.1017 16.4853 15.5824 16.4853C10.7794 16.4853 10 19.4884 10 19.4884C10.2108 22.018 11.9158 24.1007 13.9785 25.2026C14.0728 25.2528 14.1676 25.2978 14.2597 25.3429C14.4248 25.4155 14.5907 25.4882 14.7559 25.5528C15.4633 25.8108 16.204 25.9577 16.9535 25.9887C25.3717 26.397 27.0037 15.5845 20.9279 12.4448C22.4832 12.1651 24.0983 12.8124 25 13.4669C23.5241 10.8002 20.7656 9 17.5995 9C17.3991 9 17.2031 9.01743 17.0062 9.03124C15.3121 9.15257 13.6925 9.79859 12.3586 10.8852C12.6166 11.1111 12.9075 11.4118 13.5196 12.0351C14.6681 13.2062 17.6072 14.4113 17.6134 14.553Z" fill="url(#paint5_radial_214_2774)"/>
<path d="M10.6583 10.7759C10.7915 10.8617 10.901 10.9339 11 11C10.6258 9.69474 10.61 8.31338 10.9543 7C9.2666 7.76607 7.95422 8.97478 7 10.0446C7.07723 10.0425 9.46001 9.99962 10.6583 10.7759Z" fill="url(#paint6_radial_214_2774)"/>
<path d="M0.0830848 17.9548C1.40172 25.7826 8.46264 31.7639 16.4776 31.9926C23.8967 32.2033 28.6332 27.8748 30.5937 23.6518C31.859 20.9216 32.7376 16.4551 31.1255 12.0621V12.0292C31.1255 12.0335 31.1255 12.0392 31.129 12.0578C31.7347 16.0356 29.7222 19.889 26.5759 22.4951C26.5727 22.5023 26.5697 22.5097 26.5668 22.5172C20.4356 27.5353 14.5689 25.5446 13.3811 24.7322C13.2986 24.6922 13.2155 24.6508 13.133 24.6079C9.55807 22.893 8.08163 19.6168 8.39796 16.8094C5.38038 16.8094 4.35106 14.25 4.35106 14.25C4.35106 14.25 7.06085 12.3079 10.6322 13.9971C13.9398 15.5618 17.0462 14.25 17.0462 14.25C17.0398 14.1106 14.0671 12.9217 12.9077 11.7734C12.2885 11.1603 11.9942 10.8645 11.7332 10.6423C11.5921 10.5223 11.4445 10.4102 11.2911 10.3064C11.1895 10.235 11.0779 10.1636 10.9358 10.0714C9.68957 9.25683 7.21154 9.30185 7.1298 9.30399H7.12197C6.44453 8.44155 6.49215 5.59698 6.53054 5.00321C6.52273 4.96606 6.02584 5.26258 5.96186 5.3076C5.36407 5.73626 4.80529 6.21736 4.29206 6.74524C3.70803 7.34043 3.17445 7.9836 2.6969 8.66805C1.59821 10.2332 0.819026 12.0016 0.404394 13.8713C0.390891 13.9042 -0.216898 16.5716 0.0830848 17.9548Z" fill="url(#paint7_radial_214_2774)"/>
<path d="M22.7581 11.7908C23.3853 12.4 23.9225 13.0938 24.3536 13.8517C24.4431 13.9181 24.5289 13.989 24.611 14.0639C28.5056 17.6138 26.4683 22.6391 26.3131 23C29.4772 20.4191 31.501 16.6025 30.8919 12.6627C28.9496 7.86601 25.6555 5.93258 22.9653 1.72394C22.8288 1.51163 22.693 1.29932 22.56 1.07215C22.485 0.944064 22.4243 0.827995 22.3713 0.718305C22.2599 0.505499 22.1738 0.280599 22.1147 0.0481208C22.1152 0.0370804 22.1115 0.0262579 22.1044 0.0177597C22.0972 0.0092615 22.0871 0.00369285 22.0761 0.0021191C22.0655 -0.000706368 22.0545 -0.000706368 22.044 0.0021191C22.041 0.00340231 22.0385 0.00507284 22.036 0.00707028C22.0317 0.00707028 22.0274 0.0120338 22.0231 0.013438C21.3584 0.327654 17.4179 6.50441 22.7581 11.7908Z" fill="url(#paint8_radial_214_2774)"/>
<path d="M24.7878 13.3944C24.7112 13.3169 24.6312 13.2439 24.5479 13.1753C24.5152 13.1483 24.4813 13.1214 24.448 13.0943C23.5932 12.4373 22.0622 11.7861 20.5878 12.0672C26.3468 15.2223 24.8004 26.088 16.8202 25.6778C16.1097 25.6465 15.4075 25.4989 14.7368 25.2397C14.5803 25.1755 14.4231 25.1047 14.2665 25.0288C14.1759 24.9834 14.0859 24.9382 14 24.8879L14.0106 24.8952C15.1239 25.7275 20.6224 27.7612 26.3687 22.6321C26.3687 22.6321 26.372 22.6226 26.3774 22.6094C26.52 22.2438 28.4188 17.0599 24.7878 13.3944Z" fill="url(#paint9_radial_214_2774)"/>
<path d="M9.7209 19.5854C9.7209 19.5854 10.466 16.7398 15.058 16.7398C15.5545 16.7398 16.9736 15.3204 16.9998 14.9088C17.026 14.4971 14.0635 16.1726 10.9371 14.665C7.56136 13.0377 5 14.9088 5 14.9088C5 14.9088 5.97294 17.3744 8.82523 17.3744C8.52623 20.079 9.9218 23.2324 13.3009 24.8872C13.3762 24.9236 13.4474 24.9642 13.5247 25C11.5525 23.9579 9.9245 21.9823 9.7209 19.5854Z" fill="url(#paint10_radial_214_2774)"/>
<path d="M32.775 11.7389C32.0356 9.96583 30.5368 8.05168 29.3603 7.44702C30.3179 9.31742 30.8718 11.1935 31.0836 12.5932C31.0836 12.5932 31.0836 12.6031 31.0871 12.6215C29.1626 7.84214 25.8986 5.91458 23.2332 1.71871C23.0979 1.50704 22.9634 1.29537 22.8316 1.0689C22.7572 0.941199 22.6969 0.825482 22.6446 0.716125C22.5341 0.503964 22.4487 0.279747 22.3903 0.0479747C22.3908 0.0369678 22.387 0.0261782 22.38 0.0177058C22.3729 0.00923339 22.363 0.00368164 22.3521 0.00211267C22.3416 -0.000704224 22.3306 -0.000704224 22.3201 0.00211267C22.3173 0.00339198 22.3147 0.00505744 22.3124 0.00704882C22.3081 0.00704882 22.3039 0.0119972 22.2996 0.0133972L22.3066 0.00422473C18.0306 2.49904 16.5798 7.114 16.4467 9.42326C16.645 9.40985 16.8427 9.39293 17.0445 9.39293C20.2355 9.39293 23.0151 11.1412 24.5032 13.7313C23.5944 13.0963 21.9668 12.467 20.3992 12.7387C26.5219 15.788 24.878 26.2893 16.3935 25.8928C15.6382 25.8626 14.8915 25.7199 14.1786 25.4695C14.0121 25.4073 13.845 25.3389 13.6786 25.2655C13.5823 25.2218 13.4866 25.178 13.3953 25.1294L13.4066 25.1364C13.3243 25.0969 13.2415 25.056 13.1593 25.0137C13.2386 25.0511 13.3138 25.0927 13.3953 25.1294C11.312 24.0591 9.59573 22.0342 9.38111 19.5774C9.38111 19.5774 10.1666 16.6607 15.0074 16.6607C15.5309 16.6607 17.0268 15.2059 17.0545 14.784C17.048 14.6464 14.0858 13.4723 12.9305 12.3386C12.3135 11.7332 12.0203 11.4411 11.7604 11.2217C11.6197 11.1032 11.4726 10.9925 11.3197 10.8901C10.932 9.53774 10.9156 8.10652 11.2724 6.74572C9.52348 7.53945 8.16349 8.7918 7.17466 9.90021H7.16688C6.49184 9.04861 6.53929 6.23984 6.57755 5.65353C6.56975 5.61684 6.07464 5.90964 6.01088 5.95409C5.41522 6.37736 4.85842 6.85241 4.34701 7.37366C3.76505 7.96135 3.23338 8.59644 2.75752 9.27227C1.66273 10.8177 0.886318 12.5639 0.473159 14.4101C0.465375 14.4468 0.458283 14.4848 0.4505 14.5222C0.418624 14.6712 0.27412 15.4288 0.25429 15.5912C0.25429 15.5791 0.25429 15.6038 0.25429 15.5912C0.121662 16.3741 0.0367453 17.1644 0 17.9575V18.0443C0 27.4083 7.62162 35 17.0225 35C25.4425 35 32.433 28.9111 33.8022 20.9131C33.8305 20.6965 33.8538 20.4778 33.8793 20.259C34.218 17.3507 33.8418 14.2944 32.775 11.7389Z" fill="url(#paint11_linear_214_2774)"/>
<defs>
<linearGradient id="paint0_linear_214_2774" x1="30.5219" y1="5.42212" x2="2.36971" y2="32.6907" gradientUnits="userSpaceOnUse">
<stop offset="0.05" stop-color="#FFF44F"/>
<stop offset="0.11" stop-color="#FFE847"/>
<stop offset="0.22" stop-color="#FFC830"/>
<stop offset="0.37" stop-color="#FF980E"/>
<stop offset="0.4" stop-color="#FF8B16"/>
<stop offset="0.46" stop-color="#FF672A"/>
<stop offset="0.53" stop-color="#FF3647"/>
<stop offset="0.7" stop-color="#E31587"/>
</linearGradient>
<radialGradient id="paint1_radial_214_2774" cx="0" cy="0" r="1" gradientUnits="userSpaceOnUse" gradientTransform="translate(29.2146 3.3799) scale(35.4892 35.9221)">
<stop offset="0.13" stop-color="#FFBD4F"/>
<stop offset="0.19" stop-color="#FFAC31"/>
<stop offset="0.25" stop-color="#FF9D17"/>
<stop offset="0.28" stop-color="#FF980E"/>
<stop offset="0.4" stop-color="#FF563B"/>
<stop offset="0.47" stop-color="#FF3750"/>
<stop offset="0.71" stop-color="#F5156C"/>
<stop offset="0.78" stop-color="#EB0878"/>
<stop offset="0.86" stop-color="#E50080"/>
</radialGradient>
<radialGradient id="paint2_radial_214_2774" cx="0" cy="0" r="1" gradientUnits="userSpaceOnUse" gradientTransform="translate(16.2468 18.0654) scale(35.4892 35.9221)">
<stop offset="0.3" stop-color="#960E18"/>
<stop offset="0.35" stop-color="#B11927" stop-opacity="0.74"/>
<stop offset="0.43" stop-color="#DB293D" stop-opacity="0.34"/>
<stop offset="0.5" stop-color="#F5334B" stop-opacity="0.09"/>
<stop offset="0.53" stop-color="#FF3750" stop-opacity="0"/>
</radialGradient>
<radialGradient id="paint3_radial_214_2774" cx="0" cy="0" r="1" gradientUnits="userSpaceOnUse" gradientTransform="translate(20.9999 -4.19992) scale(25.1969 25.9693)">
<stop offset="0.13" stop-color="#FFF44F"/>
<stop offset="0.25" stop-color="#FFDC3E"/>
<stop offset="0.51" stop-color="#FF9D12"/>
<stop offset="0.53" stop-color="#FF980E"/>
</radialGradient>
<radialGradient id="paint4_radial_214_2774" cx="0" cy="0" r="1" gradientUnits="userSpaceOnUse" gradientTransform="translate(12.9195 27.7169) scale(16.7655 17.3294)">
<stop offset="0.35" stop-color="#3A8EE6"/>
<stop offset="0.47" stop-color="#5C79F0"/>
<stop offset="0.67" stop-color="#9059FF"/>
<stop offset="1" stop-color="#C139E6"/>
</radialGradient>
<radialGradient id="paint5_radial_214_2774" cx="0" cy="0" r="1" gradientTransform="matrix(8.6224 -2.20515 2.51659 10.4674 17.3193 13.8844)" gradientUnits="userSpaceOnUse">
<stop offset="0.21" stop-color="#9059FF" stop-opacity="0"/>
<stop offset="0.28" stop-color="#8C4FF3" stop-opacity="0.06"/>
<stop offset="0.75" stop-color="#7716A8" stop-opacity="0.45"/>
<stop offset="0.97" stop-color="#6E008B" stop-opacity="0.6"/>
</radialGradient>
<radialGradient id="paint6_radial_214_2774" cx="0" cy="0" r="1" gradientUnits="userSpaceOnUse" gradientTransform="translate(15.322 2.84273) scale(11.7308 11.6866)">
<stop stop-color="#FFE226"/>
<stop offset="0.12" stop-color="#FFDB27"/>
<stop offset="0.3" stop-color="#FFC82A"/>
<stop offset="0.5" stop-color="#FFA930"/>
<stop offset="0.73" stop-color="#FF7E37"/>
<stop offset="0.79" stop-color="#FF7139"/>
</radialGradient>
<radialGradient id="paint7_radial_214_2774" cx="0" cy="0" r="1" gradientUnits="userSpaceOnUse" gradientTransform="translate(25.371 -6.03492) scale(52.0496 52.3189)">
<stop offset="0.11" stop-color="#FFF44F"/>
<stop offset="0.46" stop-color="#FF980E"/>
<stop offset="0.62" stop-color="#FF5634"/>
<stop offset="0.72" stop-color="#FF3647"/>
<stop offset="0.9" stop-color="#E31587"/>
</radialGradient>
<radialGradient id="paint8_radial_214_2774" cx="0" cy="0" r="1" gradientTransform="matrix(3.83435 37.5789 -24.9412 2.48307 20.0476 0.404016)" gradientUnits="userSpaceOnUse">
<stop stop-color="#FFF44F"/>
<stop offset="0.06" stop-color="#FFE847"/>
<stop offset="0.17" stop-color="#FFC830"/>
<stop offset="0.3" stop-color="#FF980E"/>
<stop offset="0.36" stop-color="#FF8B16"/>
<stop offset="0.45" stop-color="#FF672A"/>
<stop offset="0.57" stop-color="#FF3647"/>
<stop offset="0.74" stop-color="#E31587"/>
</radialGradient>
<radialGradient id="paint9_radial_214_2774" cx="0" cy="0" r="1" gradientUnits="userSpaceOnUse" gradientTransform="translate(15.9947 6.05324) scale(30.4552 33.3709)">
<stop offset="0.14" stop-color="#FFF44F"/>
<stop offset="0.48" stop-color="#FF980E"/>
<stop offset="0.59" stop-color="#FF5634"/>
<stop offset="0.66" stop-color="#FF3647"/>
<stop offset="0.9" stop-color="#E31587"/>
</radialGradient>
<radialGradient id="paint10_radial_214_2774" cx="0" cy="0" r="1" gradientUnits="userSpaceOnUse" gradientTransform="translate(23.6464 9.08113) scale(33.6174 34.4397)">
<stop offset="0.09" stop-color="#FFF44F"/>
<stop offset="0.23" stop-color="#FFE141"/>
<stop offset="0.51" stop-color="#FFAF1E"/>
<stop offset="0.63" stop-color="#FF980E"/>
</radialGradient>
<linearGradient id="paint11_linear_214_2774" x1="30.1819" y1="5.27677" x2="6.23165" y2="29.3222" gradientUnits="userSpaceOnUse">
<stop offset="0.17" stop-color="#FFF44F" stop-opacity="0.8"/>
<stop offset="0.27" stop-color="#FFF44F" stop-opacity="0.63"/>
<stop offset="0.49" stop-color="#FFF44F" stop-opacity="0.22"/>
<stop offset="0.6" stop-color="#FFF44F" stop-opacity="0"/>
</linearGradient>
</defs>
</svg>
