<svg width="32" height="32" viewBox="0 0 32 32" fill="none" xmlns="http://www.w3.org/2000/svg">
<g clip-path="url(#clip0_214_2776)">
<path d="M8.16438 7.71812C8.16938 7.71874 8.17439 7.71874 8.16438 7.71812V7.71812ZM30.1281 10.5525C29.465 8.95874 28.1231 7.23999 27.0694 6.69437C27.9269 8.37499 28.4238 10.0619 28.6131 11.3194C28.6131 11.3194 28.6131 11.3281 28.6163 11.345C26.8925 7.04812 23.9694 5.31562 21.5819 1.54312C21.4613 1.35249 21.3406 1.16124 21.2231 0.959993C21.1606 0.856868 21.1069 0.751243 21.055 0.644368C20.9564 0.453305 20.8801 0.251571 20.8275 0.0431178C20.8281 0.0331686 20.8248 0.0233796 20.8184 0.0157245C20.8121 0.00806949 20.803 0.0031178 20.7931 0.00186782C20.7837 -0.000622605 20.7738 -0.000622605 20.7644 0.00186782L20.7569 0.00624282L20.7456 0.0124928L20.7519 0.00374282C17.3625 1.98937 15.9569 5.46499 15.5956 7.67749C14.5485 7.73699 13.5227 7.99868 12.575 8.44812C12.4888 8.49089 12.4214 8.56398 12.3858 8.65336C12.3502 8.74275 12.3488 8.84214 12.3819 8.93249C12.4151 9.02842 12.485 9.10725 12.5763 9.15166C12.6676 9.19608 12.7728 9.20245 12.8688 9.16937L12.9013 9.15624C13.7282 8.76559 14.6208 8.53245 15.5331 8.46874L15.6219 8.46249C15.7469 8.45499 15.8719 8.44999 15.9969 8.44874C16.7378 8.44271 17.4757 8.54419 18.1875 8.74999C18.2294 8.76249 18.27 8.77624 18.3125 8.78937C18.4306 8.82499 18.5475 8.86437 18.6638 8.90624C18.7488 8.93749 18.8331 8.96874 18.9169 9.00499C18.985 9.03249 19.0531 9.05999 19.12 9.08937C19.225 9.13645 19.3292 9.18541 19.4325 9.23624C19.4794 9.25937 19.5263 9.28249 19.5731 9.30687C19.6731 9.35937 19.7719 9.41416 19.8694 9.47124C19.9323 9.50749 19.9948 9.54499 20.0569 9.58374C21.1612 10.267 22.0776 11.215 22.7231 12.3419C21.9106 11.77 20.4513 11.205 19.0469 11.4494C24.5306 14.1906 23.0581 23.6306 15.46 23.2744C14.7834 23.2467 14.1147 23.1178 13.4763 22.8919C13.3254 22.835 13.1762 22.7739 13.0288 22.7087C12.9425 22.6694 12.8563 22.6294 12.7713 22.5837C10.9063 21.625 9.36876 19.8075 9.17688 17.5994C9.17688 17.5994 9.88001 14.9775 14.2156 14.9775C14.6844 14.9775 16.0238 13.67 16.0488 13.29C16.0431 13.165 13.39 12.1106 12.3556 11.0912C11.8025 10.5469 11.54 10.2844 11.3075 10.0875C11.1818 9.98076 11.0501 9.88123 10.9131 9.78937C10.5655 8.57333 10.5506 7.28625 10.87 6.06249C9.30376 6.77562 8.08564 7.90312 7.20063 8.89812H7.19313C6.58876 8.13249 6.63063 5.60749 6.66626 5.08062C6.65876 5.04749 6.21501 5.31062 6.15689 5.34999C5.62368 5.73103 5.12508 6.1583 4.66688 6.62687C4.14593 7.15576 3.66991 7.72711 3.24376 8.33499C2.2633 9.72423 1.56802 11.2941 1.19813 12.9537C1.19438 12.9706 1.05251 13.5919 0.948135 14.3587C0.930635 14.4783 0.914385 14.5979 0.899385 14.7175C0.86376 14.9481 0.836885 15.1994 0.809385 15.5925C0.809385 15.6075 0.809385 15.6225 0.80626 15.6375C0.79501 15.8069 0.78501 15.9756 0.775635 16.145V16.2225C0.775635 24.6412 7.60126 31.4656 16.0206 31.4656C23.5606 31.4656 29.8219 25.9919 31.0475 18.8019C31.0731 18.6069 31.0938 18.4106 31.1169 18.2137C31.42 15.5994 31.0831 12.8519 30.1281 10.5544V10.5525Z" fill="#717171"/>
</g>
<defs>
<clipPath id="clip0_214_2776">
<rect width="32" height="32" fill="white"/>
</clipPath>
</defs>
</svg>
