<svg viewBox="0 0 36 36" fill="none" xmlns="http://www.w3.org/2000/svg">
<path d="M18 26.3479C22.6104 26.3479 26.3479 22.6104 26.3479 18C26.3479 13.3897 22.6104 9.65222 18 9.65222C13.3897 9.65222 9.65222 13.3897 9.65222 18C9.65222 22.6104 13.3897 26.3479 18 26.3479Z" fill="white"/>
<path d="M13.8261 25.2261C12.5576 24.4954 11.5047 23.4425 10.7739 22.174L3.54783 9.65222C2.08276 12.1898 1.31133 15.0682 1.31104 17.9984C1.31074 20.9285 2.0816 23.8071 3.54616 26.345C5.01072 28.8828 7.11739 30.9906 9.65452 32.4564C12.1916 33.9222 15.0699 34.6945 18 34.6957L25.2261 22.174C24.1186 24.0899 22.2956 25.4876 20.1579 26.0599C18.0202 26.6322 15.7427 26.3323 13.8261 25.2261Z" fill="url(#paint0_linear_214_2771)"/>
<path d="M26.3478 18C26.3486 19.4659 25.9616 20.906 25.2261 22.174L18 34.6957C20.9312 34.6968 23.8111 33.9262 26.35 32.4613C28.889 30.9964 30.9975 28.8889 32.4636 26.3506C33.9297 23.8124 34.7017 20.9329 34.702 18.0016C34.7023 15.0704 33.9308 12.1907 32.4652 9.65222H17.9869C20.2009 9.65222 22.3242 10.5317 23.8897 12.0972C25.4553 13.6628 26.3348 15.7861 26.3348 18H26.3478Z" fill="url(#paint1_linear_214_2771)"/>
<path d="M18 24.7826C21.7459 24.7826 24.7826 21.7459 24.7826 18C24.7826 14.2541 21.7459 11.2174 18 11.2174C14.2541 11.2174 11.2174 14.2541 11.2174 18C11.2174 21.7459 14.2541 24.7826 18 24.7826Z" fill="#1A73E8"/>
<path d="M13.8261 10.774C15.0941 10.0384 16.5341 9.6514 18 9.65223H32.4522C30.9868 7.11425 28.8792 5.0067 26.3412 3.5414C23.8031 2.0761 20.9241 1.30469 17.9935 1.30469C15.0628 1.30469 12.1838 2.0761 9.6458 3.5414C7.10777 5.0067 5.00016 7.11425 3.53479 9.65223L10.7739 22.174C9.66771 20.2573 9.36782 17.9798 9.94015 15.8422C10.5125 13.7045 11.9102 11.8815 13.8261 10.774Z" fill="url(#paint2_linear_214_2771)"/>
<defs>
<linearGradient id="paint0_linear_214_2771" x1="20.2174" y1="34.3044" x2="5.73913" y2="9.26092" gradientUnits="userSpaceOnUse">
<stop stop-color="#1E8E3E"/>
<stop offset="1" stop-color="#34A853"/>
</linearGradient>
<linearGradient id="paint1_linear_214_2771" x1="15.7826" y1="34.4348" x2="30.2609" y2="9.39135" gradientUnits="userSpaceOnUse">
<stop stop-color="#FCC934"/>
<stop offset="1" stop-color="#FBBC04"/>
</linearGradient>
<linearGradient id="paint2_linear_214_2771" x1="3.52175" y1="11.7392" x2="32.4783" y2="11.7392" gradientUnits="userSpaceOnUse">
<stop stop-color="#D93025"/>
<stop offset="1" stop-color="#EA4335"/>
</linearGradient>
</defs>
</svg>
