<svg width="31" height="32" viewBox="0 0 31 32" fill="none" xmlns="http://www.w3.org/2000/svg">
<g clip-path="url(#clip0_214_2777)">
<path d="M8.21875 13.5938L3.44375 6.25626C6.41875 2.55626 10.8813 0.518764 15.4438 0.500014C18.0875 0.481264 20.7875 1.15626 23.2437 2.57501C25.9562 4.15001 28.0187 6.41251 29.3312 9.01251L16.5 8.33751C12.8687 8.12501 9.4125 10.1688 8.21875 13.5938ZM10.275 16C10.275 18.8875 12.6125 21.225 15.5 21.225C18.3875 21.225 20.725 18.8875 20.725 16C20.725 13.1125 18.3875 10.775 15.5 10.775C12.6125 10.775 10.275 13.1063 10.275 16ZM29.9562 10.425L21.225 10.875C23.5938 13.6438 23.6313 17.6375 21.6375 20.7L14.6313 31.475C17.5375 31.6313 20.5312 30.9938 23.2437 29.4188C29.9562 25.5438 32.675 17.4188 29.9562 10.425ZM8.35625 18.975L2.525 7.50626C0.93125 9.94376 0 12.8688 0 16C0 23.75 5.675 30.1688 13.0938 31.3063L17.075 23.5063C13.475 24.1813 10 22.2063 8.35625 18.975Z" fill="#717171"/>
</g>
<defs>
<clipPath id="clip0_214_2777">
<rect width="31" height="32" fill="white"/>
</clipPath>
</defs>
</svg>
