<svg width="32" height="32" viewBox="0 0 32 32" fill="none" xmlns="http://www.w3.org/2000/svg">
<g clip-path="url(#clip0_214_2778)">
<path d="M19.4185 31.5652C15.5089 31.7714 11.8445 28.9742 10.8529 25.0646C10.5135 23.812 10.4444 22.5016 10.6503 21.2202C10.8562 19.9389 11.3323 18.716 12.0471 17.6329C12.136 17.5013 12.1929 17.2774 12.4026 17.3165C12.5589 17.3556 12.527 17.5476 12.5412 17.6719C12.9357 20.6432 14.631 22.7153 17.2043 24.0695C20.8651 25.9852 24.5863 25.8892 28.2862 24.1157C28.6416 23.9451 29.0397 23.579 29.4164 23.9842C29.7931 24.3893 29.4164 24.8016 29.2032 25.1499C27.227 28.1781 24.6858 30.4812 21.0499 31.3413C20.6945 31.4231 20.339 31.4835 19.9836 31.5368C19.8166 31.5546 19.6175 31.5652 19.4185 31.5652Z" fill="#717171"/>
<path d="M16.2233 13.2398C17.0372 13.4104 12.2604 9.44751 6.38178 10.3396C4.33458 10.6488 -0.371157 12.4224 0.0233572 18.7488C0.730639 30.1008 9.94307 31.7606 13.0103 31.9988C13.057 32.0027 13.104 31.9973 13.1487 31.9829C13.1933 31.9686 13.2346 31.9455 13.2703 31.9151C13.306 31.8847 13.3353 31.8476 13.3565 31.8058C13.3778 31.7641 13.3906 31.7185 13.3942 31.6718C13.3985 31.6195 13.3912 31.5668 13.3728 31.5177C13.3543 31.4685 13.3252 31.424 13.2876 31.3874C11.6668 29.8201 7.18503 27.0549 8.19086 21.354C9.09362 16.204 12.79 12.5148 16.2233 13.2398Z" fill="#717171"/>
<path d="M19.8806 20.3375C21.217 20.7996 23.3531 21.0484 26.5483 20.2522H26.5696C27.7352 19.8125 28.7638 19.0723 29.5509 18.1066C30.338 17.1409 30.8557 15.9843 31.0514 14.7539C31.9542 8.5803 26.7508 0.295512 17.645 0.0111773C5.02061 -0.34424 1.55528 7.88013 0.894204 9.90956C0.884878 9.93779 0.884875 9.96827 0.894193 9.9965C0.903512 10.0247 0.921659 10.0492 0.945957 10.0663C0.970255 10.0835 0.999416 10.0923 1.02914 10.0916C1.05885 10.0909 1.08756 10.0807 1.11101 10.0624C2.57888 8.88951 8.52502 4.8413 15.9035 9.47951C20.0832 12.8062 19.5607 16.1436 18.8073 17.9349C18.7126 18.151 18.6618 18.3837 18.658 18.6196C18.6542 18.8555 18.6974 19.0897 18.785 19.3087C18.8727 19.5277 19.0031 19.7271 19.1686 19.8952C19.3342 20.0633 19.5315 20.1967 19.7491 20.2878L19.8806 20.3375Z" fill="#717171"/>
</g>
<defs>
<clipPath id="clip0_214_2778">
<rect width="32" height="32" fill="white"/>
</clipPath>
</defs>
</svg>
