<svg viewBox="0 0 36 37" fill="none" xmlns="http://www.w3.org/2000/svg">
<path d="M32.4843 26.789C32.0062 27.0422 31.514 27.2672 31.0078 27.45C29.3906 28.0547 27.689 28.364 25.9593 28.364C19.3078 28.364 13.514 23.7937 13.514 17.9156C13.5281 16.3125 14.414 14.8359 15.8203 14.0765C9.80151 14.3297 8.25464 20.6015 8.25464 24.2719C8.25464 34.664 17.8312 35.7187 19.8984 35.7187C21.0093 35.7187 22.6828 35.3953 23.6953 35.0718L23.8781 35.0156C27.7593 33.6797 31.05 31.064 33.2437 27.5906C33.4125 27.3234 33.3281 26.9859 33.075 26.8172C32.8921 26.7047 32.6671 26.6906 32.4843 26.789Z" fill="url(#paint0_linear_214_2773)"/>
<path opacity="0.35" d="M32.4843 26.789C32.0062 27.0422 31.514 27.2672 31.0078 27.45C29.3906 28.0547 27.689 28.364 25.9593 28.364C19.3078 28.364 13.514 23.7937 13.514 17.9156C13.5281 16.3125 14.414 14.8359 15.8203 14.0765C9.80151 14.3297 8.25464 20.6015 8.25464 24.2719C8.25464 34.664 17.8312 35.7187 19.8984 35.7187C21.0093 35.7187 22.6828 35.3953 23.6953 35.0718L23.8781 35.0156C27.7593 33.6797 31.05 31.064 33.2437 27.5906C33.4125 27.3234 33.3281 26.9859 33.075 26.8172C32.8921 26.7047 32.6671 26.6906 32.4843 26.789Z" fill="url(#paint1_radial_214_2773)"/>
<path d="M14.8641 33.9468C13.6126 33.1734 12.5298 32.1468 11.672 30.9515C7.97352 25.889 9.08446 18.7875 14.147 15.089C14.6813 14.7093 15.2298 14.3578 15.8204 14.0765C16.2563 13.8656 17.0016 13.5 18.0001 13.514C19.4204 13.5281 20.7563 14.2031 21.6141 15.3421C22.1766 16.1015 22.5001 17.0156 22.5141 17.9718C22.5141 17.9437 25.9595 6.77808 11.2641 6.77808C5.0907 6.77808 0.0141432 12.6421 0.0141432 17.775C-0.0139818 20.489 0.576643 23.189 1.71571 25.65C5.59696 33.9187 15.047 37.9687 23.7095 35.0859C20.7423 36.014 17.5079 35.6062 14.8641 33.9468Z" fill="url(#paint2_linear_214_2773)"/>
<path opacity="0.41" d="M14.8641 33.9468C13.6126 33.1734 12.5298 32.1468 11.672 30.9515C7.97352 25.889 9.08446 18.7875 14.147 15.089C14.6813 14.7093 15.2298 14.3578 15.8204 14.0765C16.2563 13.8656 17.0016 13.5 18.0001 13.514C19.4204 13.5281 20.7563 14.2031 21.6141 15.3421C22.1766 16.1015 22.5001 17.0156 22.5141 17.9718C22.5141 17.9437 25.9595 6.77808 11.2641 6.77808C5.0907 6.77808 0.0141432 12.6421 0.0141432 17.775C-0.0139818 20.489 0.576643 23.189 1.71571 25.65C5.59696 33.9187 15.047 37.9687 23.7095 35.0859C20.7423 36.014 17.5079 35.6062 14.8641 33.9468Z" fill="url(#paint3_radial_214_2773)"/>
<path d="M21.4172 20.9391C21.3047 21.0797 20.9531 21.2906 20.9531 21.7406C20.9531 22.1063 21.1922 22.4578 21.6141 22.7531C23.6391 24.1594 27.45 23.9766 27.4641 23.9766C28.9688 23.9766 30.4313 23.5688 31.725 22.8094C34.3688 21.2625 36 18.4359 36 15.3703C36.0422 12.2203 34.875 10.125 34.4109 9.19688C31.4297 3.36094 24.9891 0 18 0C8.15625 0 0.140625 7.90312 0 17.7469C0.0703125 12.6141 5.175 8.46562 11.25 8.46562C11.7422 8.46562 14.5547 8.50781 17.1562 9.88594C19.4484 11.0953 20.6578 12.5437 21.4875 13.9922C22.3594 15.4969 22.5141 17.3813 22.5141 18.1406C22.5141 18.8859 22.1344 20.0109 21.4172 20.9391Z" fill="url(#paint4_radial_214_2773)"/>
<path d="M21.4172 20.9391C21.3047 21.0797 20.9531 21.2906 20.9531 21.7406C20.9531 22.1063 21.1922 22.4578 21.6141 22.7531C23.6391 24.1594 27.45 23.9766 27.4641 23.9766C28.9688 23.9766 30.4313 23.5688 31.725 22.8094C34.3688 21.2625 36 18.4359 36 15.3703C36.0422 12.2203 34.875 10.125 34.4109 9.19688C31.4297 3.36094 24.9891 0 18 0C8.15625 0 0.140625 7.90312 0 17.7469C0.0703125 12.6141 5.175 8.46562 11.25 8.46562C11.7422 8.46562 14.5547 8.50781 17.1562 9.88594C19.4484 11.0953 20.6578 12.5437 21.4875 13.9922C22.3594 15.4969 22.5141 17.3813 22.5141 18.1406C22.5141 18.8859 22.1344 20.0109 21.4172 20.9391Z" fill="url(#paint5_radial_214_2773)"/>
<defs>
<linearGradient id="paint0_linear_214_2773" x1="8.25524" y1="24.8934" x2="33.3262" y2="24.8934" gradientUnits="userSpaceOnUse">
<stop stop-color="#0C59A4"/>
<stop offset="1" stop-color="#114A8B"/>
</linearGradient>
<radialGradient id="paint1_radial_214_2773" cx="0" cy="0" r="1" gradientUnits="userSpaceOnUse" gradientTransform="translate(22.1051 25.0926) scale(13.4115 12.7395)">
<stop offset="0.72" stop-opacity="0"/>
<stop offset="0.95" stop-opacity="0.53"/>
<stop offset="1"/>
</radialGradient>
<linearGradient id="paint2_linear_214_2773" x1="21.4835" y1="14.0268" x2="5.82162" y2="31.0863" gradientUnits="userSpaceOnUse">
<stop stop-color="#1B9DE2"/>
<stop offset="0.16" stop-color="#1595DF"/>
<stop offset="0.67" stop-color="#0680D7"/>
<stop offset="1" stop-color="#0078D4"/>
</linearGradient>
<radialGradient id="paint3_radial_214_2773" cx="0" cy="0" r="1" gradientTransform="matrix(3.02147 -19.9377 16.1145 2.41717 9.92935 27.9856)" gradientUnits="userSpaceOnUse">
<stop offset="0.76" stop-opacity="0"/>
<stop offset="0.95" stop-opacity="0.5"/>
<stop offset="1"/>
</radialGradient>
<radialGradient id="paint4_radial_214_2773" cx="0" cy="0" r="1" gradientTransform="matrix(-1.1386 28.461 -60.6312 -2.27689 3.63551 6.66456)" gradientUnits="userSpaceOnUse">
<stop stop-color="#35C1F1"/>
<stop offset="0.11" stop-color="#34C1ED"/>
<stop offset="0.23" stop-color="#2FC2DF"/>
<stop offset="0.31" stop-color="#2BC3D2"/>
<stop offset="0.67" stop-color="#36C752"/>
</radialGradient>
<radialGradient id="paint5_radial_214_2773" cx="0" cy="0" r="1" gradientTransform="matrix(3.83276 13.1382 -10.677 3.14834 33.7585 10.8852)" gradientUnits="userSpaceOnUse">
<stop stop-color="#66EB6E"/>
<stop offset="1" stop-color="#66EB6E" stop-opacity="0"/>
</radialGradient>
</defs>
</svg>
