<svg viewBox="0 0 32 32" fill="none" xmlns="http://www.w3.org/2000/svg">
<g clip-path="url(#clip0_214_2775)">
<path d="M17.1681 17.1681L14.8319 14.8319L10.375 21.625L17.1681 17.1681ZM16 0.5C7.4375 0.5 0.5 7.4375 0.5 16C0.5 24.5625 7.4375 31.5 16 31.5C24.5625 31.5 31.5 24.5625 31.5 16C31.5 7.4375 24.5625 0.5 16 0.5ZM25.7406 11.4244L26.6644 11.0413C26.7251 11.0162 26.7901 11.0033 26.8558 11.0033C26.9215 11.0034 26.9865 11.0164 27.0471 11.0416C27.1078 11.0668 27.1629 11.1037 27.2093 11.1501C27.2557 11.1966 27.2924 11.2518 27.3175 11.3125C27.3427 11.3732 27.3557 11.4383 27.3557 11.504C27.3558 11.5697 27.3428 11.6348 27.3177 11.6955C27.2926 11.7562 27.2557 11.8114 27.2092 11.8578C27.1628 11.9043 27.1076 11.9411 27.0469 11.9663L26.125 12.3481C26.0025 12.3988 25.8649 12.3988 25.7424 12.348C25.6199 12.2973 25.5226 12.2 25.4719 12.0775C25.4211 11.9552 25.4208 11.8178 25.4712 11.6954C25.5216 11.5729 25.6185 11.4755 25.7406 11.4244ZM19.6519 5.875L20.0344 4.95125C20.0855 4.82911 20.1829 4.73222 20.3054 4.68184C20.4278 4.63146 20.5652 4.63169 20.6875 4.6825C20.81 4.73324 20.9073 4.83055 20.958 4.95303C21.0088 5.07551 21.0088 5.21313 20.9581 5.33563L20.575 6.25938C20.5243 6.38186 20.4269 6.47917 20.3045 6.52992C20.182 6.58067 20.0444 6.5807 19.9219 6.53C19.8611 6.50482 19.8058 6.46789 19.7593 6.42131C19.7128 6.37473 19.6759 6.31943 19.6509 6.25857C19.6258 6.19772 19.6129 6.13251 19.6131 6.06668C19.6133 6.00086 19.6265 5.93572 19.6519 5.875ZM16 3.75C16.1326 3.75 16.2598 3.80268 16.3536 3.89645C16.4473 3.99021 16.5 4.11739 16.5 4.25V5.25C16.5 5.38261 16.4473 5.50979 16.3536 5.60355C16.2598 5.69732 16.1326 5.75 16 5.75C15.8674 5.75 15.7402 5.69732 15.6464 5.60355C15.5527 5.50979 15.5 5.38261 15.5 5.25V4.25C15.5 4.11739 15.5527 3.99021 15.6464 3.89645C15.7402 3.80268 15.8674 3.75 16 3.75ZM11.3125 4.6825C11.3732 4.6573 11.4383 4.64431 11.504 4.64428C11.5697 4.64424 11.6348 4.65716 11.6955 4.6823C11.7562 4.70743 11.8114 4.74429 11.8578 4.79076C11.9043 4.83723 11.9411 4.8924 11.9663 4.95312L12.3481 5.875C12.3748 5.93592 12.389 6.00153 12.3899 6.068C12.3909 6.13448 12.3786 6.20048 12.3537 6.26214C12.3289 6.3238 12.292 6.37989 12.2452 6.42712C12.1984 6.47435 12.1427 6.51178 12.0813 6.53721C12.0198 6.56265 11.954 6.57558 11.8875 6.57525C11.821 6.57491 11.7553 6.56133 11.6941 6.53528C11.6329 6.50924 11.5776 6.47125 11.5313 6.42356C11.4849 6.37586 11.4486 6.31941 11.4244 6.2575L11.0413 5.33375C10.9912 5.21139 10.9916 5.07418 11.0424 4.95213C11.0933 4.83008 11.1904 4.73314 11.3125 4.6825ZM7.33875 7.33813C7.43251 7.24443 7.55964 7.19179 7.69219 7.19179C7.82474 7.19179 7.95187 7.24443 8.04562 7.33813L8.75 8.045C8.84313 8.13868 8.8954 8.26541 8.8954 8.3975C8.8954 8.52959 8.84313 8.65632 8.75 8.75C8.65624 8.8437 8.52911 8.89633 8.39656 8.89633C8.26401 8.89633 8.13688 8.8437 8.04313 8.75L7.33625 8.04313C7.24337 7.9492 7.19144 7.82233 7.19179 7.69024C7.19214 7.55815 7.24475 7.43156 7.33813 7.33813H7.33875ZM3.75 16C3.75 15.8674 3.80268 15.7402 3.89645 15.6464C3.99021 15.5527 4.11739 15.5 4.25 15.5H5.25C5.38261 15.5 5.50979 15.5527 5.60355 15.6464C5.69732 15.7402 5.75 15.8674 5.75 16C5.75 16.1326 5.69732 16.2598 5.60355 16.3536C5.50979 16.4473 5.38261 16.5 5.25 16.5H4.25C4.11739 16.5 3.99021 16.4473 3.89645 16.3536C3.80268 16.2598 3.75 16.1326 3.75 16ZM6.25938 20.5756L5.33563 20.9587C5.27493 20.9838 5.20989 20.9967 5.14422 20.9967C5.07854 20.9966 5.01352 20.9836 4.95287 20.9584C4.89222 20.9332 4.83713 20.8963 4.79074 20.8499C4.74435 20.8034 4.70757 20.7482 4.6825 20.6875C4.6573 20.6268 4.64431 20.5617 4.64428 20.496C4.64424 20.4303 4.65716 20.3652 4.6823 20.3045C4.70743 20.2438 4.74429 20.1886 4.79076 20.1422C4.83723 20.0957 4.8924 20.0589 4.95312 20.0338L5.875 19.6519C5.9975 19.6012 6.13512 19.6012 6.2576 19.652C6.38007 19.7027 6.47738 19.8 6.52812 19.9225C6.57893 20.0448 6.57917 20.1822 6.52879 20.3046C6.4784 20.4271 6.38152 20.5245 6.25938 20.5756ZM6.53 12.0756C6.50506 12.1367 6.4683 12.1922 6.42182 12.2389C6.37535 12.2857 6.32008 12.3228 6.2592 12.3482C6.19832 12.3735 6.13303 12.3865 6.0671 12.3865C6.00116 12.3865 5.93587 12.3735 5.875 12.3481L4.95125 11.9656C4.82911 11.9145 4.73222 11.8171 4.68184 11.6946C4.63146 11.5722 4.63169 11.4348 4.6825 11.3125C4.73324 11.19 4.83055 11.0927 4.95303 11.042C5.07551 10.9912 5.21313 10.9912 5.33563 11.0419L6.25938 11.425C6.3817 11.4757 6.4789 11.573 6.52963 11.6953C6.58037 11.8176 6.5805 11.9551 6.53 12.0775V12.0756ZM12.3481 26.125L11.9656 27.0487C11.9405 27.1094 11.9037 27.1646 11.8573 27.2111C11.8108 27.2575 11.7557 27.2944 11.695 27.3195C11.6343 27.3447 11.5693 27.3577 11.5036 27.3577C11.4379 27.3577 11.3729 27.3448 11.3122 27.3197C11.2515 27.2946 11.1963 27.2577 11.1499 27.2113C11.1034 27.1649 11.0665 27.1098 11.0414 27.0491C11.0162 26.9884 11.0033 26.9234 11.0032 26.8577C11.0032 26.792 11.0161 26.7269 11.0413 26.6663L11.4244 25.7425C11.4486 25.6806 11.4849 25.6241 11.5313 25.5764C11.5776 25.5287 11.6329 25.4908 11.6941 25.4647C11.7553 25.4387 11.821 25.4251 11.8875 25.4248C11.954 25.4244 12.0198 25.4374 12.0813 25.4628C12.1427 25.4882 12.1984 25.5256 12.2452 25.5729C12.292 25.6201 12.3289 25.6762 12.3537 25.7379C12.3786 25.7995 12.3909 25.8655 12.3899 25.932C12.389 25.9985 12.3748 26.0641 12.3481 26.125ZM16.5 27.75C16.5 27.8826 16.4473 28.0098 16.3536 28.1036C16.2598 28.1973 16.1326 28.25 16 28.25C15.8674 28.25 15.7402 28.1973 15.6464 28.1036C15.5527 28.0098 15.5 27.8826 15.5 27.75V26.75C15.5 26.6174 15.5527 26.4902 15.6464 26.3964C15.7402 26.3027 15.8674 26.25 16 26.25C16.1326 26.25 16.2598 26.3027 16.3536 26.3964C16.4473 26.4902 16.5 26.6174 16.5 26.75V27.75ZM20.6875 27.3175C20.6268 27.3427 20.5617 27.3557 20.496 27.3557C20.4303 27.3558 20.3652 27.3428 20.3045 27.3177C20.2438 27.2926 20.1886 27.2557 20.1422 27.2092C20.0957 27.1628 20.0589 27.1076 20.0338 27.0469L19.6519 26.125C19.6012 26.0025 19.6012 25.8649 19.652 25.7424C19.7027 25.6199 19.8 25.5226 19.9225 25.4719C20.045 25.4212 20.1826 25.4212 20.3051 25.472C20.4276 25.5227 20.5249 25.62 20.5756 25.7425L20.9587 26.6663C21.0088 26.7886 21.0084 26.9258 20.9576 27.0479C20.9067 27.1699 20.8096 27.2669 20.6875 27.3175ZM24.6612 24.6619C24.5675 24.7556 24.4404 24.8082 24.3078 24.8082C24.1753 24.8082 24.0481 24.7556 23.9544 24.6619L23.25 23.955C23.1569 23.8613 23.1046 23.7346 23.1046 23.6025C23.1046 23.4704 23.1569 23.3437 23.25 23.25C23.3438 23.1563 23.4709 23.1037 23.6034 23.1037C23.736 23.1037 23.8631 23.1563 23.9569 23.25L24.6637 23.9569C24.7566 24.0508 24.8086 24.1777 24.8082 24.3098C24.8079 24.4419 24.7552 24.5684 24.6619 24.6619H24.6612ZM17.8906 17.8906L6.89625 25.1038L14.1094 14.1094L25.1038 6.89625L17.8906 17.8906ZM27.3175 20.6875C27.2668 20.81 27.1694 20.9073 27.047 20.958C26.9245 21.0088 26.7869 21.0088 26.6644 20.9581L25.7406 20.575C25.6181 20.5243 25.5208 20.4269 25.4701 20.3045C25.4193 20.182 25.4193 20.0444 25.47 19.9219C25.4952 19.8611 25.5321 19.8058 25.5787 19.7593C25.6253 19.7128 25.6806 19.6759 25.7414 19.6509C25.8023 19.6258 25.8675 19.6129 25.9333 19.6131C25.9991 19.6133 26.0643 19.6265 26.125 19.6519L27.0487 20.0344C27.1709 20.0855 27.2678 20.1829 27.3182 20.3054C27.3685 20.4278 27.3683 20.5652 27.3175 20.6875ZM27.75 16.5H26.75C26.6174 16.5 26.4902 16.4473 26.3964 16.3536C26.3027 16.2598 26.25 16.1326 26.25 16C26.25 15.8674 26.3027 15.7402 26.3964 15.6464C26.4902 15.5527 26.6174 15.5 26.75 15.5H27.75C27.8826 15.5 28.0098 15.5527 28.1036 15.6464C28.1973 15.7402 28.25 15.8674 28.25 16C28.25 16.1326 28.1973 16.2598 28.1036 16.3536C28.0098 16.4473 27.8826 16.5 27.75 16.5Z" fill="#717171"/>
</g>
<defs>
<clipPath id="clip0_214_2775">
<rect width="32" height="32" fill="white"/>
</clipPath>
</defs>
</svg>
