<svg viewBox="0 0 16 16" fill="none" xmlns="http://www.w3.org/2000/svg">
<path d="M4.96996 15.0441C4.77453 15.0437 4.58358 14.9855 4.42122 14.8768C4.25885 14.768 4.13234 14.6136 4.05767 14.433C3.98299 14.2524 3.96349 14.0537 4.00163 13.862C4.03977 13.6704 4.13383 13.4943 4.27196 13.3561L9.62696 8.00005L4.26996 2.64405C4.08457 2.4584 3.98053 2.20671 3.98071 1.94435C3.9809 1.68198 4.0853 1.43044 4.27096 1.24505C4.45661 1.05967 4.7083 0.955623 4.97066 0.955811C5.23303 0.955998 5.48457 1.0604 5.66996 1.24605L11.726 7.30005C11.8178 7.39181 11.8907 7.50078 11.9404 7.62071C11.9901 7.74065 12.0157 7.86922 12.0157 7.99905C12.0157 8.12889 11.9901 8.25745 11.9404 8.37739C11.8907 8.49733 11.8178 8.6063 11.726 8.69805L5.66996 14.7541C5.5782 14.8462 5.4691 14.9193 5.34896 14.9691C5.22881 15.0188 5.1 15.0443 4.96996 15.0441Z" fill="#292929"/>
</svg>
