<svg viewBox="0 0 23 24" fill="none" xmlns="http://www.w3.org/2000/svg">
<mask id="mask0_214_2779" style="mask-type:alpha" maskUnits="userSpaceOnUse" x="0" y="0" width="23" height="24">
<path d="M0.0140189 24L0 12L2.99923 12.0055L3 24L0.0140189 24Z" fill="#C4C4C4"/>
<path d="M10.014 24L10 6L12.9992 6.00823L13 24L10.014 24Z" fill="#C4C4C4"/>
<path d="M20.014 24L20 0L22.9992 0.0109667L23 24L20.014 24Z" fill="#C4C4C4"/>
</mask>
<g mask="url(#mask0_214_2779)">
<path d="M14 -4C10.4988 -3.99597 7.03487 -3.47569 3.81583 -2.47037C0.596792 -1.46505 -2.31099 0.00459433 -4.73312 1.85042H32.7632C30.3375 0.00192976 27.4249 -1.46926 24.2004 -2.47467C20.9759 -3.48008 17.5062 -3.99892 14 -4ZM-6.52746 3.36992C-7.24954 4.04731 -7.90786 4.75968 -8.49789 5.50212H36.4877C35.908 4.76036 35.2604 4.04801 34.5494 3.36992H-6.52746ZM-9.68716 7.19703C-10.0661 7.80867 -10.4003 8.43455 -10.6884 9.07203H38.6734C38.3868 8.43462 38.0542 7.80874 37.6768 7.19703H-9.68716ZM-11.4448 11.1059C-11.5936 11.6422 -11.7106 12.183 -11.7954 12.7267H39.7831C39.6947 12.1829 39.5741 11.6421 39.4217 11.1059H-11.4448ZM-11.9964 14.9301L-12 14.983C-11.9988 15.4497 -11.974 15.9161 -11.9257 16.3814H39.9041C39.9596 15.9163 39.9916 15.4499 40 14.983L39.9976 14.9301H-11.9964ZM-11.4543 18.7542C-11.3433 19.1847 -11.2119 19.6122 -11.0603 20.036H39.0336C39.2033 19.6127 39.3528 19.1852 39.4817 18.7542H-11.4543ZM-9.79371 22.5784C-9.57734 22.9545 -9.34442 23.3255 -9.09531 23.6907H37.0773C37.3392 23.3258 37.5847 22.9549 37.8134 22.5784H-9.79371ZM-6.73918 26.4025C-6.40328 26.7249 -6.05334 27.0393 -5.68989 27.3453H33.7159C34.067 27.0389 34.4049 26.7245 34.7288 26.4025H-6.73918ZM-1.444 30.2267C-0.942184 30.4979 -0.427152 30.7559 0.100098 31H27.9445C28.4573 30.7552 28.9581 30.4973 29.446 30.2267H-1.444Z" fill="#8B8B8B"/>
</g>
<path d="M0.0140189 24L0 12L2.99923 12.0055L3 24L0.0140189 24Z" fill="#FF672A"/>
</svg>
