<svg width="24" height="24" viewBox="0 0 24 24" fill="none" xmlns="http://www.w3.org/2000/svg">
<path d="M16.2437 13.2438L14.1312 15.3563L18.825 20.05L15.75 23.1313H24V14.8813L20.9375 17.9438L16.2437 13.2438Z" fill="#505050"/>
<path d="M0.3875 20.5189L20.8864 6.01391e-05L22.9989 2.13131L2.5 22.6314L0.3875 20.5189Z" fill="#505050"/>
<path d="M5.5 7.60436C5.13915 7.60436 4.80886 7.51561 4.50913 7.33809C4.20939 7.16058 3.97077 6.92196 3.79325 6.62222C3.61574 6.32248 3.52698 5.99219 3.52698 5.63135C3.52698 5.26759 3.61574 4.9373 3.79325 4.64047C3.97077 4.34074 4.20939 4.10211 4.50913 3.9246C4.80886 3.74709 5.13915 3.65833 5.5 3.65833C5.86376 3.65833 6.19405 3.74709 6.49087 3.9246C6.79061 4.10211 7.02923 4.34074 7.20675 4.64047C7.38426 4.9373 7.47302 5.26759 7.47302 5.63135C7.47302 5.99219 7.38426 6.32248 7.20675 6.62222C7.02923 6.92196 6.79061 7.16058 6.49087 7.33809C6.19405 7.51561 5.86376 7.60436 5.5 7.60436ZM5.08095 2.78532V0.131348H5.91905V2.78532H5.08095ZM7.80476 3.92024L7.21111 3.32659L9.09682 1.44087L9.69048 2.03452L7.80476 3.92024ZM8.34603 6.05039V5.2123H11V6.05039H8.34603ZM9.09682 9.82182L7.21111 7.93611L7.80476 7.34246L9.69048 9.22817L9.09682 9.82182ZM5.08095 11.1313V8.47738H5.91905V11.1313H5.08095ZM1.90317 9.82182L1.30952 9.22817L3.19524 7.34246L3.78889 7.93611L1.90317 9.82182ZM0 6.05039V5.2123H2.65397V6.05039H0ZM3.19524 3.92024L1.30952 2.03452L1.90317 1.44087L3.78889 3.32659L3.19524 3.92024Z" fill="#505050"/>
</svg>
